<?xml version="1.0" encoding="UTF-8"?>
<svg width="184px" height="184px" viewBox="0 0 184 184" version="1.1" xmlns="http://www.w3.org/2000/svg" xmlns:xlink="http://www.w3.org/1999/xlink">
    <title>logoAUD</title>
    <g id="Page-1" stroke="none" stroke-width="1" fill="none" fill-rule="evenodd">
        <path d="M181.999807,3 L181.999807,182 L2.20352665,182.001364 C2.13571555,182.003962 2.06787333,182.006502 2,182.008985 L2,182 L2.20352665,182.001364 C4.42488139,181.916264 6.61285066,181.769365 8.76743446,181.560666 L181.623465,181.560104 L92,3 L72.8428265,41.1595004 C84.0349188,56.3691782 89.7538475,73.9826781 89.9996127,94 C89.920691,117.46368 81.0099673,138.423034 63.2674416,156.87806 C48.4211135,171.251841 30.2544444,179.479376 8.76743446,181.560666 L2.35088144,181.560104 L72.8428265,41.1595004 C70.860891,38.4661165 68.7073247,35.8481131 66.3821278,33.3054901 C48.1207095,14.6517506 26.6600002,5.21789846 2,5.00393376 L2,5.00393376 L2,3 L181.999807,3 Z" id="logoAUD" stroke="#000000" stroke-width="2"></path>
    </g>
</svg>